<?xml version="1.0" encoding="iso-8859-1"?>
<!-- Generator: Adobe Illustrator 18.0.0, SVG Export Plug-In . SVG Version: 6.00 Build 0)  -->
<!DOCTYPE svg PUBLIC "-//W3C//DTD SVG 1.1//EN" "http://www.w3.org/Graphics/SVG/1.1/DTD/svg11.dtd">
<svg fill="#FFF" version="1.1" id="Capa_1" xmlns="http://www.w3.org/2000/svg" xmlns:xlink="http://www.w3.org/1999/xlink" x="0px" y="0px"
	 viewBox="0 0 330 330" style="enable-background:new 0 0 330 330;" xml:space="preserve">
<g>
	<path d="M315,0.001H15c-8.284,0-15,6.716-15,15v299.998c0,8.284,6.716,15,15,15h300c8.284,0,15-6.716,15-15V15.001
		C330,6.717,323.284,0.001,315,0.001z M300,299.999H30V30.001h270V299.999z"/>
	<path d="M84.394,245.606C87.323,248.536,91.161,250,95,250c3.838,0,7.678-1.465,10.606-4.394l59.393-59.392l59.391,59.392
		c2.93,2.93,6.768,4.394,10.607,4.394c3.838,0,7.678-1.465,10.606-4.394c5.858-5.857,5.858-15.355,0-21.213l-59.391-59.393
		l59.394-59.393c5.858-5.857,5.858-15.355,0-21.213c-5.857-5.858-15.354-5.858-21.213,0L165,143.788l-59.393-59.395
		c-5.859-5.858-15.355-5.858-21.213,0c-5.858,5.857-5.858,15.355,0,21.213l59.393,59.395l-59.393,59.393
		C78.536,230.251,78.536,239.749,84.394,245.606z"/>
</g>
<g>
</g>
<g>
</g>
<g>
</g>
<g>
</g>
<g>
</g>
<g>
</g>
<g>
</g>
<g>
</g>
<g>
</g>
<g>
</g>
<g>
</g>
<g>
</g>
<g>
</g>
<g>
</g>
<g>
</g>
</svg>
