<svg xmlns="http://www.w3.org/2000/svg" width="30" viewBox="0 0 30 30" height="30" version="1.0"><defs><clipPath id="a"><path d="M 4.429688 7 L 22 7 L 22 26.28125 L 4.429688 26.28125 Z M 4.429688 7"/></clipPath><clipPath id="b"><path d="M 10 3.054688 L 25.476562 3.054688 L 25.476562 21 L 10 21 Z M 10 3.054688"/></clipPath></defs><g clip-path="url(#a)"><path fill="#FFF" d="M 12.800781 21.921875 C 10.558594 21.921875 8.734375 20.078125 8.734375 17.8125 L 8.734375 7.894531 L 7.058594 7.894531 C 5.609375 7.894531 4.429688 9.085938 4.429688 10.554688 L 4.429688 23.617188 C 4.429688 25.085938 5.609375 26.277344 7.058594 26.277344 L 19.019531 26.277344 C 20.472656 26.277344 21.652344 25.085938 21.652344 23.617188 L 21.652344 21.921875 Z M 12.800781 21.921875"/></g><g clip-path="url(#b)"><path fill="#FFF" d="M 25.476562 5.71875 C 25.476562 4.246094 24.300781 3.054688 22.847656 3.054688 L 12.800781 3.054688 C 11.347656 3.054688 10.167969 4.246094 10.167969 5.71875 L 10.167969 17.8125 C 10.167969 19.28125 11.347656 20.472656 12.800781 20.472656 L 22.847656 20.472656 C 24.300781 20.472656 25.476562 19.28125 25.476562 17.8125 Z M 25.476562 5.71875"/></g></svg>